<?xml version="1.0" encoding="UTF-8"?><svg id="Layer_2" xmlns="http://www.w3.org/2000/svg" viewBox="0 0 1916.24 1217.33"><defs><style>.cls-1{fill:#f9e3ac;}.cls-2{fill:#f06060;}.cls-3{fill:#e6e7e8;}.cls-4{fill:#f6b59b;}.cls-5{fill:#f4918d;}.cls-6{fill:#f37a52;}.cls-7{fill:#ef502b;}.cls-8{fill:#edf6f2;}.cls-9{fill:#fcf49f;}.cls-10{fill:#32353d;}.cls-11{fill:#8cbdb1;}.cls-12{fill:#d34726;}.cls-13{fill:#dca28c;}.cls-14{fill:#dc5858;}.cls-15{fill:#dae9ef;}.cls-16{fill:#e278ae;}.cls-17{fill:#d5deda;}.cls-18{fill:#5c4c52;}.cls-19{fill:#343643;}.cls-20{fill:#58595b;}.cls-21{fill:#534349;}.cls-22{fill:#82b0a5;}</style></defs><path class="cls-15" d="M1340.28,1210.3H729.52c-9.32,0-16.87-7.55-16.87-16.87h0c0-9.32,7.55-16.87,16.87-16.87h610.75c9.32,0,16.87,7.55,16.87,16.87h0c0,9.32-7.55,16.87-16.87,16.87Z"/><g><path class="cls-9" d="M934.12,309.93c-28.25-41.47-76.08-34.32-76.08-34.32-16.87,0-30.55,13.68-30.55,30.55s13.68,30.55,30.55,30.55c1.65,0,3.26-.13,4.84-.38,109.16,94.29,133.06-15.15,133.06-15.15-10.54,17.92-33.56,30.22-61.81-11.25Z"/><path class="cls-1" d="M846.5,323.29h23.69c37.13,0,67.27,30.14,67.27,67.27v23.69c0,37.13-30.14,67.27-67.27,67.27h-23.69c-37.13,0-67.27-30.14-67.27-67.27v-23.69c0-37.13,30.14-67.27,67.27-67.27Z"/><path class="cls-2" d="M928.72,389.44v11.7c0-31.68-25.68-57.37-57.37-57.37h-26.96c-31.67,0-57.35,25.68-57.35,57.37v-11.7c0-31.68,25.68-57.37,57.35-57.37h26.96c31.68,0,57.37,25.68,57.37,57.37Z"/><path class="cls-8" d="M919.09,626.59c.52-3.89,1.32-7.41,2.43-10.33h-126.81c1.08,2.84,1.86,6.21,2.39,9.97,2.97,20.97-1.72,53.63-4.31,68.96-.75,4.45,2.68,8.49,7.19,8.49h116.28c4.51,0,7.94-4.05,7.19-8.49-2.58-15.25-7.23-47.62-4.36-68.6Z"/><path class="cls-8" d="M925.61,577.96c4.06,5.05,6.49,11.48,6.49,18.48,0,8.17-3.32,15.59-8.67,20.94-.08,.07-.17,.15-.25,.24-.06,.06-.11,.11-.18,.17-.03,.03-.06,.06-.07,.08-4.01,3.82-9.42,5.79-14.96,5.76l-100.21-.44c-5.4-.03-10.7-2.01-14.51-5.83-.03-.03-.04-.06-.07-.08-.2-.18-.38-.38-.56-.59-4.99-5.27-8.04-12.41-8.04-20.26,0-6.54,2.11-12.58,5.72-17.47,.14-.21,.31-.44,.48-.65,.28-.38,.59-.75,.9-1.1l-8.52-39.84s6.45-6.33,21.48-11.98c2.32-.87,4.85-1.73,7.59-2.54,7.45-2.22,16.49-4.12,27.26-5.19,5.68-.58,11.82-.9,18.4-.9s12.71,.32,18.39,.9c11.01,1.1,20.24,3.08,27.83,5.4,2.75,.82,5.29,1.7,7.6,2.59,1.43,.55,2.78,1.1,4.06,1.64,11.75,5.09,16.81,10.08,16.81,10.08l-7.93,37.07c-.24,1.15,.06,2.36,.8,3.29h.01c.04,.07,.1,.14,.14,.21Z"/><g><rect class="cls-4" x="841.68" y="492.78" width="32.4" height="26.82"/><path class="cls-4" d="M928.71,395.75v30.87c0,39.12-31.71,70.83-70.83,70.83h0c-39.13,0-70.85-31.72-70.85-70.85v-30.85c0-27.24,22.08-49.31,49.31-49.31h43.06c27.23,0,49.31,22.07,49.31,49.31Z"/><path class="cls-9" d="M787.04,397.84s54.97-6.72,71.14-42.57c0,0-4.49,25.08-16.5,33.74,0,0,32.64-8.79,48.12-34.27,0,0,11.41,30.14,38.92,43.1h0c0-33.99-27.55-61.55-61.55-61.55h-18.58c-33.99,0-61.55,27.55-61.55,61.55h0Z"/><path class="cls-4" d="M787.04,397.84s-2-11.77-10.76-3.66c-10.27,9.5,.74,50.61,10.76,36.4v-32.74Z"/><path class="cls-4" d="M928.71,397.84s2-11.77,10.76-3.66c10.27,9.5-.74,50.61-10.76,36.4v-32.74Z"/><path class="cls-13" d="M928.63,402.71c0-.06,1.49-10.14,7.95-3.16,3.16,3.41,4.92,14.95,2.03,18.94-.88,1.21-2.61,1.74-3.6,.65-.98-1.07-.82-3.11-1.89-4.06-.59-.53-1.39-.56-2.13-.54-.74,.02-1.53,.05-2.17-.38-1.17-.79-.48-9.49-.2-11.46Z"/><path class="cls-13" d="M787.12,402.71c0-.06-1.49-10.14-7.95-3.16-3.16,3.41-4.92,14.95-2.03,18.94,.88,1.21,2.61,1.74,3.6,.65,.98-1.07,.82-3.11,1.89-4.06,.59-.53,1.39-.56,2.13-.54,.74,.02,1.53,.05,2.17-.38,1.17-.79,.48-9.49,.2-11.46Z"/><path class="cls-5" d="M819.06,434.45c1.75-1.75,10.82-6.71,10.55-.73-.11,2.24-2.63,2.97-4.19,3.96-2.16,1.38-3.34,3.87-5.42,5.32-1.69,1.17-4.8,1.5-5.7-.86-1.03-2.71,3.15-6.07,4.77-7.69Z"/><path class="cls-5" d="M896.69,434.45c-1.75-1.75-10.82-6.71-10.55-.73,.11,2.24,2.63,2.97,4.19,3.96,2.16,1.38,3.34,3.87,5.42,5.32,1.69,1.17,4.8,1.5,5.7-.86,1.03-2.71-3.15-6.07-4.77-7.69Z"/><path class="cls-19" d="M832.16,407.7c-9.72,0-9.73,15.1,0,15.1s9.73-15.1,0-15.1Z"/><path class="cls-19" d="M882.5,407.7c9.72,0,9.73,15.1,0,15.1s-9.73-15.1,0-15.1Z"/></g><path class="cls-21" d="M849.59,1176.33c.08,1.94-.6,3.85-1.86,5.25-7.09,7.79-32.72,33.06-59.31,23.71-3.04-1.08-5.04-4.16-5-7.56,.01-.94,.04-1.96,.09-3.06v-.03c.56-11.37,3.85-30.82,19.3-37.69h41.83s3.81,4.97,4.79,16.77c.07,.84,.12,1.7,.16,2.61Z"/><path class="cls-4" d="M802.68,1136.56l-.03,2.35-.21,18.22c-1.96,.91-3.73,2.02-5.32,3.31-.28,.22-.55,.45-.82,.69-9.92,8.7-12.33,23.97-12.79,33.53v.03c.44,2.83,2.29,5.26,4.92,6.19,16.9,5.93,33.38-2.09,44.98-10.75,.84-.62,1.67-1.25,2.46-1.88,5.45-4.34,9.6-8.59,11.86-11.08,.86-.96,1.45-2.14,1.7-3.42-.98-11.81-4.79-16.78-4.79-16.78h-.02l.22-18.04,.03-2.35,1.76-148.72c-10.55-.55-26.66-1.5-42.15-2.43l-1.79,151.15Z"/><path class="cls-18" d="M833.41,1190.1c-11.6,8.66-28.09,16.69-44.98,10.75-2.63-.93-4.48-3.36-4.92-6.19v-.03c.46-9.56,2.87-24.82,12.79-33.53,.27-.24,.53-.46,.82-.69,.67-.04,1.35-.06,2.02-.06,17.46,0,31.89,12.92,34.27,29.73Z"/><path class="cls-21" d="M867.13,1176.33c-.08,1.94,.6,3.84,1.87,5.25,7.13,7.79,32.9,33.06,59.64,23.71,3.05-1.08,5.07-4.16,5.03-7.56-.01-.94-.04-1.96-.09-3.06v-.03c-.56-11.36-3.87-30.82-19.41-37.68h-42.07s-3.83,4.97-4.82,16.77c-.07,.84-.12,1.7-.16,2.61Z"/><path class="cls-4" d="M871.82,1136.56l.03,2.35,.22,18.1c-.38,.53-3.85,5.58-4.78,16.73,.25,1.28,.85,2.46,1.71,3.42,2.28,2.49,6.45,6.73,11.93,11.08,.79,.63,1.63,1.26,2.47,1.88,11.66,8.66,28.24,16.68,45.23,10.75,2.64-.93,4.51-3.36,4.95-6.18v-.03c-.47-9.56-2.88-24.82-12.86-33.52-.27-.24-.54-.46-.82-.69-1.69-1.35-3.56-2.52-5.65-3.45l-.21-18.08-.03-2.35-1.8-151.2c-15.32,.93-31.38,1.87-42.15,2.44l1.76,148.77Z"/><path class="cls-18" d="M883.4,1190.1c11.66,8.66,28.24,16.68,45.23,10.75,2.64-.93,4.51-3.36,4.95-6.18v-.03c-.47-9.56-2.88-24.82-12.86-33.52-.27-.24-.54-.46-.82-.69-.68-.04-1.36-.06-2.04-.06-17.56,0-32.07,12.92-34.46,29.73Z"/><path class="cls-4" d="M876.31,517.45l-.78,2.07c-6.13,16.29-29.17,16.29-35.3,0l-.78-2.07c5.71-.44,11.85-.67,18.43-.67s12.72,.24,18.43,.67Z"/><path class="cls-2" d="M951.37,896.46c-2.72-157.44-32.9-192.77-32.9-192.77h-121.19s-30.18,35.34-32.9,192.77l-3.67,73.33c-.36,7.14,5.09,13.25,12.23,13.69,8.31,.52,19.74,1.22,31.53,1.93,15.49,.94,31.6,1.88,42.15,2.43,5.69,.3,9.78,.48,11.25,.48,1.55,0,6-.2,12.18-.53,10.77-.57,26.83-1.51,42.15-2.44,11.47-.69,22.51-1.37,30.6-1.88,7.14-.44,12.59-6.55,12.23-13.69l-3.67-73.33Z"/><g><path class="cls-14" d="M915.2,699.41h-.2c.64,4.45-2.34,8.49-6.26,8.49h-101.18c-3.48,0-6.22-3.19-6.33-7.02-2.53,14.09-22.37,126.07-22,168.52,0,0,60.83,3.87,79.11,3.87s79.11-3.87,79.11-3.87c.4-45.33-22.26-169.99-22.26-169.99Z"/><path class="cls-11" d="M915.2,695.19h-.2c.64,4.45-2.34,8.49-6.26,8.49h-101.18c-3.48,0-6.22-3.19-6.33-7.02-2.53,14.09-22.37,126.07-22,168.52,0,0,60.83,3.87,79.11,3.87s79.11-3.87,79.11-3.87c.4-45.33-22.26-169.99-22.26-169.99Z"/><path class="cls-11" d="M807.56,703.68h101.18c3.92,0,6.9-4.04,6.26-8.48h0c-2.25-15.26-6.3-47.64-3.8-68.61,.03-.24,.06-.49,.1-.73,.44-3.6,1.11-6.86,2.02-9.6h-110.35c.89,2.68,1.55,5.86,2.01,9.38,.01,.2,.04,.39,.07,.59,2.59,20.97-1.49,53.63-3.75,68.96-.07,.5-.09,.99-.08,1.47,.12,3.83,2.85,7.02,6.33,7.02Z"/></g><path class="cls-22" d="M913.32,616.26c-.91,2.74-9.8,13-14.28,13h-81.45c-4.62,0-13.73-10.32-14.62-13h110.35Z"/><path class="cls-11" d="M818.02,582.02l-7.77,.76-5.61-57.37c2.32-.87,4.85-1.73,7.59-2.54l5.79,59.15Z"/><path class="cls-11" d="M911.71,525.66l-5.59,57.11-7.77-.76,5.76-58.94c2.75,.82,5.29,1.7,7.6,2.59Z"/><path class="cls-11" d="M899.05,623.64h-81.45c-13.17,0-23.84-10.67-23.84-23.84h0c0-13.17,10.67-23.84,23.84-23.84h81.45c13.17,0,23.84,10.67,23.84,23.84h0c0,13.17-10.67,23.84-23.84,23.84Z"/><path class="cls-2" d="M858.36,462.95c-14.13,0-25.63-8.55-25.63-19.05,0-1.63,1.33-2.96,2.96-2.96s2.96,1.33,2.96,2.96c0,7.12,9.02,13.13,19.71,13.13s19.71-6.01,19.71-13.13c0-1.63,1.33-2.96,2.96-2.96s2.96,1.33,2.96,2.96c0,10.5-11.5,19.05-25.63,19.05Z"/><path class="cls-1" d="M816.71,408.28c.4-2.59,1.67-4.96,3.33-7,1.69-2.03,3.92-3.72,6.45-4.75,2.52-1.04,5.35-1.47,8-1.05,1.34,.1,2.6,.58,3.82,1,1.2,.51,2.32,1.2,3.36,1.95-1.34,.14-2.54,0-3.75,.08-1.21,.12-2.36,.05-3.48,.28-2.25,.21-4.35,.82-6.35,1.63-2,.81-3.92,1.91-5.79,3.25-1.87,1.35-3.68,2.88-5.61,4.6Z"/><path class="cls-1" d="M899.65,408.28c-1.92-1.73-3.74-3.26-5.61-4.6-1.86-1.34-3.78-2.44-5.79-3.25-2-.81-4.09-1.42-6.35-1.63-1.12-.23-2.27-.16-3.48-.28-1.21-.08-2.41,.06-3.75-.08,1.04-.75,2.16-1.44,3.36-1.95,1.22-.42,2.49-.91,3.82-1,2.65-.42,5.48,0,8,1.05,2.54,1.03,4.76,2.71,6.45,4.75,1.67,2.05,2.93,4.41,3.33,7Z"/><rect class="cls-16" x="840.86" y="308.53" width="35.75" height="14.95" rx="7.47" ry="7.47"/></g><g><path class="cls-8" d="M741.08,695.11c-1.77,0-3.56-.27-5.34-.83-9.25-2.95-14.35-12.83-11.41-22.08l40.88-128.3c2.95-9.25,12.83-14.36,22.08-11.41,9.25,2.95,14.35,12.83,11.41,22.08l-40.88,128.3c-2.38,7.47-9.29,12.24-16.74,12.24Z"/><path class="cls-3" d="M1309.21,1134.49c-.95,0-1.89,.05-2.82,.15-4.31-10.62-13.23-19.25-25.07-22.75-20.65-6.1-42.34,5.68-48.44,26.33-.96,3.23-1.47,6.49-1.59,9.72-8.7,2.39-15.11,10.33-15.11,19.79,0,2.64,.51,5.15,1.42,7.47l-1.26,.58c-8.75,9.94-30.99,12.1-43.87,12.5h136.74c14.85,0,26.89-12.04,26.89-26.89s-12.04-26.89-26.89-26.89Z"/><g><rect class="cls-6" x="904.92" y="462.29" width="14.99" height="654.13" transform="translate(-282.11 619.97) rotate(-32.79)"/><g><path class="cls-7" d="M1206.51,1092.81l-29.32-32.18c-.12-.13-.32-.16-.47-.07l-129.62,79.15c-.15,.09-.22,.28-.15,.45l15.25,40.84s.02,.09,.02,.13c-.03,1.02,.21,2.12,.83,3.36,.09,.18,.32,.26,.5,.17,2.24-1.18,3.65-3.88,3.9-6.45,.01-.12,.07-.22,.17-.28h0c.18-.11,.43-.04,.52,.15,.37,.71,.74,1.43,1.11,2.14,.1,.19,.34,.26,.52,.15,2.75-1.67,4.87-4.31,5.99-7.31,.03-.08,.08-.14,.15-.19l.76-.46c.13-.08,.3-.06,.42,.04,.75,.6,1.83,.89,2.69,.42,1.27-.69,1.84-2.09,2-3.57l.29-.18c.58,.95,1.79,1.6,2.93,1.42,1.74-.27,3-1.92,3.38-3.64,.11-.51,.16-1.02,.17-1.54,0-.13,.07-.25,.18-.31l1.76-1.08c.11-.07,.25-.07,.36-.01,3.12,1.59,7.31,1.24,9.84-1.24,.12-.12,.14-.3,.06-.45-.58-1.02-1.17-2.05-1.75-3.07-.1-.17-.04-.4,.13-.5l.8-.49c.1-.06,.22-.07,.32-.03,.99,.37,2.01,.64,3.06,.7,1.93,.1,4.03-.68,4.93-2.39,.48-.91,.44-2.07,.01-3-.08-.17-.01-.37,.15-.46l.11-.07c.09-.06,.21-.07,.31-.03,3.24,1.13,6.73,1.6,9.79,.2,3.07-1.4,4.89-5.41,3.88-8.36-.06-.17,0-.35,.15-.45l.45-.28c.09-.05,.2-.07,.3-.04,1.36,.41,2.87,.38,4.19-.16,1.96-.79,3.43-2.65,3.81-4.72,.02-.1,.08-.2,.17-.25l.28-.17c.08-.05,.17-.06,.26-.05,3.69,.66,7.62-.17,10.73-2.27,.19-.13,.21-.4,.06-.56-.77-.82-1.53-1.64-2.3-2.46l.28-.17c.1-.06,.22-.07,.33-.02,2.96,1.23,6.78,.47,8.84-2.03,.11-.13,.11-.32,0-.46-.52-.71-1.04-1.43-1.57-2.14l.35-.22c.99,.33,2.15,.2,2.89-.56,.38-.39,.6-.9,.66-1.43,.01-.12,.08-.22,.18-.28l1.79-1.09c.08-.05,.18-.07,.27-.04,1.92,.43,3.9,.34,5.6-.61,1.54-.86,2.49-2.63,2.64-4.37,.01-.12,.07-.22,.17-.29l3.53-2.16s.1-.05,.15-.05c1.64-.15,3.23-.76,4.49-1.83,.13-.11,.16-.31,.08-.46l-.06-.1c-.09-.17-.03-.39,.13-.49l3.11-1.9c.06-.04,.13-.05,.2-.05,1.91,.05,3.84-.34,5.57-1.16,.21-.1,.27-.36,.14-.55-.23-.33-.45-.65-.68-.98-.12-.18-.07-.42,.11-.53l.22-.13c.08-.05,.18-.06,.28-.04,1.11,.26,2.32,.08,3.18-.68,.55-.49,.89-1.15,1.02-1.87,.02-.1,.08-.2,.17-.25l5.87-3.59s.07-.04,.11-.04c.51-.11,1.01-.24,1.51-.4-.09-.13-.17-.26-.26-.39l1.2-.73c.07-.04,.15-.06,.24-.05,2.7,.35,5.63-.81,7.14-3.1,.08-.12,.23-.19,.37-.16,2.87,.48,5.98-1.15,7.21-3.79,.08-.16,.02-.36-.13-.46-.45-.3-.9-.58-1.37-.84-.03-.02-.06-.04-.09-.07Z"/><path class="cls-7" d="M1069.53,1140.82c5.54,3.79,7.58,13.96,8.5,20.13,.58,3.94,6.83,3.74,6.24-.23-1.32-8.91-4.01-20.08-11.88-25.45-3.31-2.26-6.15,3.31-2.86,5.55h0Z"/><path class="cls-12" d="M1070.05,1132.38c1.67,1.74,2.92,3.73,4,5.8,1.06,2.08,1.9,4.26,2.53,6.5,.63,2.24,1.04,4.54,1.21,6.87,.15,2.33,.1,4.68-.43,7.03-1.03-2.18-1.75-4.33-2.46-6.47-.69-2.14-1.33-4.28-1.92-6.42-.6-2.14-1.16-4.3-1.67-6.49-.49-2.2-.99-4.42-1.24-6.81Z"/><path class="cls-12" d="M1085.87,1124.66c1.84,.77,3.36,2,4.7,3.38,1.32,1.4,2.42,3.01,3.28,4.74,.85,1.73,1.46,3.58,1.76,5.48,.29,1.91,.33,3.86-.19,5.79-1.04-1.7-1.82-3.32-2.63-4.91l-2.31-4.71-2.32-4.7c-.77-1.61-1.58-3.22-2.3-5.07Z"/><path class="cls-12" d="M1108.57,1113.14c1.34,1.36,2.39,2.77,3.41,4.17,1,1.41,1.93,2.82,2.83,4.25,.89,1.43,1.75,2.9,2.56,4.42,.81,1.53,1.6,3.09,2.22,4.91-1.77-.75-3.24-1.86-4.56-3.12-1.31-1.26-2.45-2.69-3.4-4.23-.95-1.54-1.73-3.19-2.28-4.93-.54-1.74-.88-3.55-.78-5.47Z"/><path class="cls-12" d="M1125.75,1100.74c1.37,1.66,2.5,3.27,3.7,4.8,1.18,1.54,2.36,3.02,3.57,4.47,1.22,1.45,2.47,2.87,3.78,4.3,1.3,1.45,2.67,2.85,4.07,4.49-2.15-.26-4.13-1.11-5.94-2.21-1.8-1.12-3.42-2.54-4.78-4.17-1.36-1.63-2.48-3.47-3.26-5.44-.76-1.98-1.25-4.07-1.14-6.23Z"/><path class="cls-12" d="M1148.25,1088.02c1.32,1.51,2.41,2.94,3.55,4.31,1.12,1.37,2.24,2.68,3.39,3.96,1.15,1.28,2.34,2.53,3.58,3.8,1.23,1.28,2.54,2.52,3.89,4-2.01-.05-3.91-.71-5.65-1.63-1.73-.94-3.3-2.19-4.61-3.66-1.32-1.47-2.39-3.16-3.14-4.98-.72-1.83-1.17-3.78-1.01-5.79Z"/><path class="cls-12" d="M1168.84,1075.12c1.73,1.37,3.2,2.79,4.68,4.17l4.32,4.14,4.31,4.15c1.44,1.42,2.92,2.83,4.35,4.51-2.19-.3-4.21-1.11-6.1-2.13-1.88-1.04-3.62-2.33-5.17-3.82-1.55-1.49-2.91-3.17-4.02-5.01-1.09-1.85-1.99-3.83-2.38-6Z"/><path class="cls-20" d="M1098.44,1056.5h0l-19.06,11.64h0c6.43,10.53,3.11,24.27-7.42,30.7l-28.65,17.49c-5.13,3.13-6.75,9.83-3.62,14.96l5.97,9.77,57-34.8,19.06-11.64,57.18-34.92-5.97-9.77c-3.13-5.13-9.83-6.75-14.96-3.62l-28.84,17.61c-10.53,6.43-24.27,3.11-30.7-7.42Z"/></g><g><path class="cls-20" d="M729.2,507.14h9.14c1.92,0,3.48,1.56,3.48,3.48v6.24h-16.09v-6.24c0-1.92,1.56-3.48,3.48-3.48Z" transform="translate(-160.48 482.43) rotate(-33.01)"/><path class="cls-20" d="M732.28,509.81c-2.63,1.68-6.14,.92-7.85-1.71-1.71-2.64-.96-6.18,1.68-7.9,1.22-.84,2.8-1.11,4.29-.8,1.49,.32,2.77,1.2,3.6,2.47,.83,1.28,1.11,2.8,.8,4.29-.32,1.49-1.19,2.77-2.47,3.6l-.05,.03Zm-4.86-7.64l-.03,.02c-1.55,1.01-1.99,3.08-.98,4.63,1,1.54,3.06,1.98,4.61,1l.03-.02c1.55-1.01,1.99-3.08,.98-4.63h0c-1-1.54-3.06-1.98-4.61-1Z"/></g></g><path class="cls-4" d="M738.82,699.79c-5.34,0-10.61-2.43-14.07-7.02-5.83-7.76-4.26-18.78,3.51-24.6l76.35-57.3c7.76-5.83,18.77-4.26,24.6,3.5,5.83,7.76,4.26,18.78-3.5,24.6l-76.35,57.3c-3.16,2.37-6.86,3.52-10.53,3.52Z"/><path class="cls-8" d="M784.33,670.02l-18.08,13.56-16.9,12.68c-3.16,2.38-6.86,3.51-10.53,3.51-5.34,0-10.61-2.42-14.07-7.01-5.82-7.76-4.26-18.78,3.5-24.6l17.98-13.49,18.08-13.56,.31,.45,.52,.74,19.19,27.72Z"/><path class="cls-4" d="M883.93,769.65c-5.14,0-10.24-2.25-13.71-6.57-6.07-7.57-4.87-18.63,2.7-24.7l83.46-67-37.22-116.81c-2.95-9.25,2.16-19.13,11.41-22.08,9.25-2.95,19.13,2.16,22.08,11.41l40.88,128.3c2.21,6.92-.08,14.49-5.74,19.04l-92.86,74.55c-3.24,2.6-7.13,3.87-10.99,3.87Z"/><path class="cls-8" d="M987.78,691.23l-46.58,37.39-17.64,14.17-.48-.67-.18-.25-18.98-27.41-.42-.62,17.66-14.17,35.23-28.28-37.22-116.81c-2.95-9.25,2.16-19.13,11.41-22.08,9.25-2.94,19.12,2.16,22.07,11.41l40.88,128.3c2.21,6.92-.07,14.49-5.74,19.03Z"/><path class="cls-17" d="M785.93,677.53l-13.73,9.49c-1.32,.93-3.16,.59-4.09-.73l-.79-1.18-.89-1.27-.18-.25-18.98-27.41-.86-1.24-.18-.27-.87-1.28c-.93-1.36-.59-3.18,.76-4.09l13.73-9.52c1.31-.91,3.15-.58,4.08,.76l.38,.56,.31,.45,.52,.74,19.19,27.72,.31,.45,.52,.76,1.52,2.19c.93,1.35,.6,3.18-.75,4.1Z"/><path class="cls-17" d="M942.58,735.81l-13.73,9.49c-1.32,.93-3.16,.59-4.09-.73l-.79-1.18-.41-.59-.48-.67-.18-.25-18.98-27.41-.42-.62-.44-.62-.18-.27-.87-1.28c-.93-1.36-.59-3.18,.76-4.09l13.73-9.52c1.31-.91,3.15-.58,4.08,.76l.38,.56,.2,.28,.11,.17,.52,.75,19.19,27.72,.23,.32,.08,.13,.52,.76,1.52,2.19c.93,1.35,.6,3.18-.74,4.1Z"/><path class="cls-10" d="M998.58,1165.07c-10.85,0-10.87,16.87,0,16.87s10.87-16.87,0-16.87Z"/><path class="cls-10" d="M1156.02,1138.37c-7.24,0-7.25,11.25,0,11.25s7.25-11.25,0-11.25Z"/><path class="cls-10" d="M1158.83,1176.32h-1.41c-2.94,0-5.76,2.59-5.62,5.62,.14,3.05,2.47,5.62,5.62,5.62h1.41c2.94,0,5.76-2.59,5.62-5.62-.14-3.05-2.47-5.62-5.62-5.62Z"/><path class="cls-10" d="M1207.87,1148.36c-1.51-1.39-3.37-2.26-5.47-2.26h-1.41c-1.98,0-4.06,.86-5.47,2.26-1.34,1.34-2.35,3.54-2.26,5.47,.09,2,.75,4.07,2.26,5.47,1.51,1.39,3.37,2.26,5.47,2.26h1.41c1.98,0,4.06-.86,5.47-2.26,1.34-1.34,2.35-3.54,2.26-5.47-.09-2-.75-4.07-2.26-5.47Z"/><path class="cls-10" d="M1019.67,1097.6c-5.43,0-5.44,8.43,0,8.43s5.44-8.43,0-8.43Z"/><path class="cls-10" d="M1035.13,1179.13c-3.62,0-3.62,5.62,0,5.62s3.62-5.62,0-5.62Z"/><path class="cls-10" d="M1113.85,1183.35c-3.62,0-3.62,5.62,0,5.62s3.62-5.62,0-5.62Z"/><path class="cls-10" d="M1222.08,1115.87c-3.62,0-3.62,5.62,0,5.62s3.62-5.62,0-5.62Z"/></g></svg>